<?xml version="1.0" encoding="UTF-8" standalone="no"?>
<!DOCTYPE svg PUBLIC "-//W3C//DTD SVG 1.1//EN" "http://www.w3.org/Graphics/SVG/1.1/DTD/svg11.dtd">
<svg xmlns="http://www.w3.org/2000/svg" version="1.1" viewBox="0.00 0.00 139.00 198.00">
<g stroke-width="2.00" fill="none" stroke-linecap="butt">
<path stroke="#ffffff" vector-effect="non-scaling-stroke" d="
  M 9.97 0.00
  L 10.01 4.36
  A 0.53 0.53 0.0 0 0 10.54 4.89
  L 31.10 4.89
  A 0.62 0.62 0.0 0 1 31.72 5.51
  L 31.72 143.71
  A 0.59 0.59 0.0 0 1 31.16 144.30
  Q 28.14 144.48 26.50 144.44
  C 16.22 144.16 3.78 148.85 1.39 159.67
  C -3.31 180.97 14.61 196.20 34.57 198.00"
/>
<path stroke="#ffffff" vector-effect="non-scaling-stroke" d="
  M 89.60 0.00
  Q 107.33 0.73 119.60 10.12
  C 132.02 19.62 136.96 35.06 129.83 49.37
  C 125.79 57.48 117.33 63.91 108.93 67.46
  Q 107.37 68.12 100.32 70.62
  A 0.20 0.20 0.0 0 0 100.34 71.00
  Q 105.95 72.53 106.33 72.65
  C 117.23 76.36 126.82 81.33 132.90 89.98
  C 139.47 99.33 140.59 111.37 136.20 122.00
  C 130.81 135.04 118.71 143.46 105.16 146.91
  Q 95.47 149.38 88.18 149.29
  A 0.60 0.59 -86.9 0 0 87.58 149.84
  C 86.07 168.08 78.93 182.82 63.13 192.39
  Q 55.66 196.92 45.34 198.00"
/>
<path stroke="#ffffff" vector-effect="non-scaling-stroke" d="
  M 76.36 67.00
  Q 76.17 47.84 76.41 25.48
  Q 76.48 19.40 79.62 16.39
  C 82.42 13.70 86.10 10.90 90.11 7.94
  A 0.46 0.46 0.0 0 0 89.84 7.11
  L 63.10 7.11
  A 0.76 0.76 0.0 0 0 62.34 7.87
  L 62.34 66.75
  A 0.63 0.63 0.0 0 0 62.97 67.38
  L 75.98 67.38
  A 0.38 0.38 0.0 0 0 76.36 67.00"
/>
<path stroke="#ffffff" vector-effect="non-scaling-stroke" d="
  M 88.64 66.42
  C 97.63 65.04 102.06 58.16 103.38 49.69
  Q 105.51 36.04 103.22 22.51
  Q 102.22 16.61 99.05 12.02
  A 0.33 0.32 54.6 0 0 98.60 11.94
  C 90.11 17.89 88.44 27.21 88.25 37.26
  Q 88.07 47.03 88.06 65.93
  A 0.50 0.50 0.0 0 0 88.64 66.42"
/>
<path stroke="#ffffff" vector-effect="non-scaling-stroke" d="
  M 62.35 73.70
  L 62.35 143.97
  A 0.40 0.40 0.0 0 0 62.75 144.37
  L 75.60 144.37
  A 0.66 0.66 0.0 0 0 76.26 143.71
  L 76.26 76.96
  A 0.44 0.44 0.0 0 1 76.70 76.52
  L 87.12 76.52
  A 0.97 0.96 90.0 0 1 88.08 77.49
  L 88.08 143.10
  A 0.40 0.40 0.0 0 0 88.57 143.49
  Q 102.82 140.32 106.31 125.83
  Q 110.05 110.31 107.15 93.92
  C 103.06 70.75 80.09 73.07 62.66 73.38
  A 0.32 0.32 0.0 0 0 62.35 73.70"
/>
<path stroke="#ffffff" vector-effect="non-scaling-stroke" d="
  M 24.96 149.80
  C 41.37 160.96 19.59 182.43 35.47 190.29
  C 40.07 192.57 45.91 191.41 49.47 188.17
  Q 54.98 183.15 56.05 174.97
  Q 57.53 163.68 57.33 149.58
  A 0.28 0.27 0.0 0 0 57.05 149.31
  L 25.12 149.31
  A 0.27 0.27 0.0 0 0 24.96 149.80"
/>
<path stroke="#ffffff" vector-effect="non-scaling-stroke" d="
  M 52.83 190.38
  A 0.25 0.24 -87.5 0 0 53.15 190.73
  Q 70.13 181.91 73.71 162.97
  Q 75.77 152.11 75.65 149.94
  A 0.68 0.68 0.0 0 0 74.97 149.30
  L 62.99 149.30
  A 0.71 0.71 0.0 0 0 62.28 150.02
  Q 62.53 162.48 60.91 174.42
  C 60.24 179.31 58.34 184.67 54.89 188.06
  Q 53.36 189.56 52.83 190.38"
/>
<path stroke="#ffffff" vector-effect="non-scaling-stroke" d="
  M 26.95 191.59
  Q 25.64 190.22 23.18 188.13
  C 14.98 181.19 16.33 171.16 17.85 161.16
  C 18.83 154.65 10.19 151.13 7.14 157.70
  C 3.25 166.08 5.94 176.69 12.29 183.20
  Q 18.27 189.34 26.71 191.98
  A 0.24 0.24 0.0 0 0 26.95 191.59"
/>
</g>
<path fill="#005E93" d="
  M 89.60 0.00
  Q 107.33 0.73 119.60 10.12
  C 132.02 19.62 136.96 35.06 129.83 49.37
  C 125.79 57.48 117.33 63.91 108.93 67.46
  Q 107.37 68.12 100.32 70.62
  A 0.20 0.20 0.0 0 0 100.34 71.00
  Q 105.95 72.53 106.33 72.65
  C 117.23 76.36 126.82 81.33 132.90 89.98
  C 139.47 99.33 140.59 111.37 136.20 122.00
  C 130.81 135.04 118.71 143.46 105.16 146.91
  Q 95.47 149.38 88.18 149.29
  A 0.60 0.59 -86.9 0 0 87.58 149.84
  C 86.07 168.08 78.93 182.82 63.13 192.39
  Q 55.66 196.92 45.34 198.00
  L 34.57 198.00
  C 14.61 196.20 -3.31 180.97 1.39 159.67
  C 3.78 148.85 16.22 144.16 26.50 144.44
  Q 28.14 144.48 31.16 144.30
  A 0.59 0.59 0.0 0 0 31.72 143.71
  L 31.72 5.51
  A 0.62 0.62 0.0 0 0 31.10 4.89
  L 10.54 4.89
  A 0.53 0.53 0.0 0 1 10.01 4.36
  L 9.97 0.00
  L 89.60 0.00
  Z
  M 76.36 67.00
  Q 76.17 47.84 76.41 25.48
  Q 76.48 19.40 79.62 16.39
  C 82.42 13.70 86.10 10.90 90.11 7.94
  A 0.46 0.46 0.0 0 0 89.84 7.11
  L 63.10 7.11
  A 0.76 0.76 0.0 0 0 62.34 7.87
  L 62.34 66.75
  A 0.63 0.63 0.0 0 0 62.97 67.38
  L 75.98 67.38
  A 0.38 0.38 0.0 0 0 76.36 67.00
  Z
  M 88.64 66.42
  C 97.63 65.04 102.06 58.16 103.38 49.69
  Q 105.51 36.04 103.22 22.51
  Q 102.22 16.61 99.05 12.02
  A 0.33 0.32 54.6 0 0 98.60 11.94
  C 90.11 17.89 88.44 27.21 88.25 37.26
  Q 88.07 47.03 88.06 65.93
  A 0.50 0.50 0.0 0 0 88.64 66.42
  Z
  M 62.35 73.70
  L 62.35 143.97
  A 0.40 0.40 0.0 0 0 62.75 144.37
  L 75.60 144.37
  A 0.66 0.66 0.0 0 0 76.26 143.71
  L 76.26 76.96
  A 0.44 0.44 0.0 0 1 76.70 76.52
  L 87.12 76.52
  A 0.97 0.96 90.0 0 1 88.08 77.49
  L 88.08 143.10
  A 0.40 0.40 0.0 0 0 88.57 143.49
  Q 102.82 140.32 106.31 125.83
  Q 110.05 110.31 107.15 93.92
  C 103.06 70.75 80.09 73.07 62.66 73.38
  A 0.32 0.32 0.0 0 0 62.35 73.70
  Z
  M 24.96 149.80
  C 41.37 160.96 19.59 182.43 35.47 190.29
  C 40.07 192.57 45.91 191.41 49.47 188.17
  Q 54.98 183.15 56.05 174.97
  Q 57.53 163.68 57.33 149.58
  A 0.28 0.27 0.0 0 0 57.05 149.31
  L 25.12 149.31
  A 0.27 0.27 0.0 0 0 24.96 149.80
  Z
  M 52.83 190.38
  A 0.25 0.24 -87.5 0 0 53.15 190.73
  Q 70.13 181.91 73.71 162.97
  Q 75.77 152.11 75.65 149.94
  A 0.68 0.68 0.0 0 0 74.97 149.30
  L 62.99 149.30
  A 0.71 0.71 0.0 0 0 62.28 150.02
  Q 62.53 162.48 60.91 174.42
  C 60.24 179.31 58.34 184.67 54.89 188.06
  Q 53.36 189.56 52.83 190.38
  Z
  M 26.95 191.59
  Q 25.64 190.22 23.18 188.13
  C 14.98 181.19 16.33 171.16 17.85 161.16
  C 18.83 154.65 10.19 151.13 7.14 157.70
  C 3.25 166.08 5.94 176.69 12.29 183.20
  Q 18.27 189.34 26.71 191.98
  A 0.24 0.24 0.0 0 0 26.95 191.59
  Z"
/>
<path fill="#ffffff" d="
  M 139.00 0.00
  L 139.00 198.00
  L 45.34 198.00
  Q 55.66 196.92 63.13 192.39
  C 78.93 182.82 86.07 168.08 87.58 149.84
  A 0.60 0.59 -86.9 0 1 88.18 149.29
  Q 95.47 149.38 105.16 146.91
  C 118.71 143.46 130.81 135.04 136.20 122.00
  C 140.59 111.37 139.47 99.33 132.90 89.98
  C 126.82 81.33 117.23 76.36 106.33 72.65
  Q 105.95 72.53 100.34 71.00
  A 0.20 0.20 0.0 0 1 100.32 70.62
  Q 107.37 68.12 108.93 67.46
  C 117.33 63.91 125.79 57.48 129.83 49.37
  C 136.96 35.06 132.02 19.62 119.60 10.12
  Q 107.33 0.73 89.60 0.00
  L 139.00 0.00
  Z"
/>
<path fill="#ffffff" d="
  M 76.36 67.00
  A 0.38 0.38 0.0 0 1 75.98 67.38
  L 62.97 67.38
  A 0.63 0.63 0.0 0 1 62.34 66.75
  L 62.34 7.87
  A 0.76 0.76 0.0 0 1 63.10 7.11
  L 89.84 7.11
  A 0.46 0.46 0.0 0 1 90.11 7.94
  C 86.10 10.90 82.42 13.70 79.62 16.39
  Q 76.48 19.40 76.41 25.48
  Q 76.17 47.84 76.36 67.00
  Z"
/>
<path fill="#ffffff" d="
  M 88.06 65.93
  Q 88.07 47.03 88.25 37.26
  C 88.44 27.21 90.11 17.89 98.60 11.94
  A 0.33 0.32 54.6 0 1 99.05 12.02
  Q 102.22 16.61 103.22 22.51
  Q 105.51 36.04 103.38 49.69
  C 102.06 58.16 97.63 65.04 88.64 66.42
  A 0.50 0.50 0.0 0 1 88.06 65.93
  Z"
/>
<path fill="#ffffff" d="
  M 62.35 73.70
  A 0.32 0.32 0.0 0 1 62.66 73.38
  C 80.09 73.07 103.06 70.75 107.15 93.92
  Q 110.05 110.31 106.31 125.83
  Q 102.82 140.32 88.57 143.49
  A 0.40 0.40 0.0 0 1 88.08 143.10
  L 88.08 77.49
  A 0.97 0.96 -90.0 0 0 87.12 76.52
  L 76.70 76.52
  A 0.44 0.44 0.0 0 0 76.26 76.96
  L 76.26 143.71
  A 0.66 0.66 0.0 0 1 75.60 144.37
  L 62.75 144.37
  A 0.40 0.40 0.0 0 1 62.35 143.97
  L 62.35 73.70
  Z"
/>
<path fill="#ffffff" d="
  M 24.96 149.80
  A 0.27 0.27 0.0 0 1 25.12 149.31
  L 57.05 149.31
  A 0.28 0.27 0.0 0 1 57.33 149.58
  Q 57.53 163.68 56.05 174.97
  Q 54.98 183.15 49.47 188.17
  C 45.91 191.41 40.07 192.57 35.47 190.29
  C 19.59 182.43 41.37 160.96 24.96 149.80
  Z"
/>
<path fill="#ffffff" d="
  M 52.83 190.38
  Q 53.36 189.56 54.89 188.06
  C 58.34 184.67 60.24 179.31 60.91 174.42
  Q 62.53 162.48 62.28 150.02
  A 0.71 0.71 0.0 0 1 62.99 149.30
  L 74.97 149.30
  A 0.68 0.68 0.0 0 1 75.65 149.94
  Q 75.77 152.11 73.71 162.97
  Q 70.13 181.91 53.15 190.73
  A 0.25 0.24 -87.5 0 1 52.83 190.38
  Z"
/>
<path fill="#ffffff" d="
  M 26.71 191.98
  Q 18.27 189.34 12.29 183.20
  C 5.94 176.69 3.25 166.08 7.14 157.70
  C 10.19 151.13 18.83 154.65 17.85 161.16
  C 16.33 171.16 14.98 181.19 23.18 188.13
  Q 25.64 190.22 26.95 191.59
  A 0.24 0.24 0.0 0 1 26.71 191.98
  Z"
/>
</svg>
